<svg xmlns="http://www.w3.org/2000/svg" width="24" height="24" viewBox="0 0 24 24" fill="currentColor"><path d="M12 2.2c3.2 0 3.6 0 4.9.1 1.2.1 1.9.3 2.4.6.6.3 1 .7 1.3 1.3.3.5.5 1.2.6 2.4.1 1.3.1 1.7.1 4.9s0 3.6-.1 4.9c-.1 1.2-.3 1.9-.6 2.4-.3.6-.7 1-1.3 1.3-.5.3-1.2.5-2.4.6-1.3.1-1.7.1-4.9.1s-3.6 0-4.9-.1c-1.2-.1-1.9-.3-2.4-.6-.6-.3-1-.7-1.3-1.3-.3-.5-.5-1.2-.6-2.4C2.2 15.6 2.2 15.2 2.2 12s0-3.6.1-4.9c.1-1.2.3-1.9.6-2.4.3-.6.7-1 1.3-1.3.5-.3 1.2-.5 2.4-.6C8.4 2.2 8.8 2.2 12 2.2m0-2.2C8.7 0 8.3 0 7 0 5.7.1 4.8.3 4 .7 3.2 1 2.5 1.6 1.9 2.4 1.3 3.2 1 4.1.9 5.4.8 6.7.8 7.1.8 12s0 5.3.1 6.6c.1 1.3.4 2.2 1 3 .6.8 1.3 1.4 2.1 1.7.8.4 1.7.6 3 .7 1.3.1 1.7.1 6.6.1s5.3 0 6.6-.1c1.3-.1 2.2-.4 3-.7.8-.4 1.5-.9 2.1-1.7.6-.8.9-1.7 1-3 .1-1.3.1-1.7.1-6.6s0-5.3-.1-6.6c-.1-1.3-.4-2.2-1-3-.6-.8-1.3-1.4-2.1-1.7-.8-.4-1.7-.6-3-.7C15.3 0 14.9 0 12 0Z"/><path d="M12 5.8A6.2 6.2 0 1 0 18.2 12 6.2 6.2 0 0 0 12 5.8m0 10.2A4 4 0 1 1 16 12a4 4 0 0 1-4 4Z"/><circle cx="18.4" cy="5.6" r="1.3"/></svg>
